<svg width="178" height="48" viewBox="0 0 178 48" fill="none" xmlns="http://www.w3.org/2000/svg">
<rect width="178" height="48" fill="#1E1E1E"/>
<rect width="739" height="781" transform="translate(-127 -29)" fill="white"/>
<g clip-path="url(#clip0_0_1)">
<mask id="mask0_0_1" style="mask-type:luminance" maskUnits="userSpaceOnUse" x="0" y="0" width="178" height="48">
<path d="M178 0H0V47.6862H178V0Z" fill="white"/>
</mask>
<g mask="url(#mask0_0_1)">
<path fill-rule="evenodd" clip-rule="evenodd" d="M0 0H49.2098V47.6857H0V0ZM39.8969 23.8354L9.31278 23.8434C9.55453 23.6138 10.1964 23.0018 11.0885 22.1514L11.0946 22.1456L11.096 22.1442L11.0966 22.1436L11.0981 22.1423C15.2037 18.2281 24.5748 9.29383 24.6667 9.29383L39.8969 9.29039V23.8354ZM24.6171 38.3964C24.5913 38.0092 24.5991 37.5671 24.6066 37.1411C24.6101 36.9439 24.6135 36.7501 24.6135 36.5669C24.6135 36.1994 24.6147 35.4866 24.6162 34.5783V34.5748C24.6221 30.8701 24.6332 23.9188 24.5935 23.8583L22.7031 25.6741C22.6093 25.7709 22.5186 25.8523 22.429 25.9327C22.3621 25.9928 22.2958 26.0523 22.2293 26.1172L18.5394 29.6335C18.5275 29.6451 18.5143 29.6556 18.5011 29.6661C18.4934 29.6723 18.4855 29.6786 18.4781 29.6849L17.4504 30.6602C17.3249 30.8011 17.0751 31.0299 16.8485 31.2372C16.7135 31.3609 16.5865 31.4772 16.4993 31.5625L14.8353 33.1556C14.7896 33.1968 14.7498 33.2359 14.7098 33.275C14.6735 33.3106 14.637 33.3465 14.596 33.384C14.5585 33.4193 14.5219 33.4519 14.4855 33.4843C14.4408 33.5242 14.3964 33.5638 14.3509 33.6079L13.6355 34.2965C13.4728 34.4541 13.3361 34.5854 13.1535 34.7499L12.6868 35.1999C12.5241 35.3472 12.3591 35.4991 12.2024 35.6521L11.0121 36.7839C10.815 36.9883 10.6278 37.1608 10.4418 37.3323C10.313 37.4511 10.1846 37.5695 10.0539 37.6975L9.58015 38.1589C9.5118 38.2182 9.39159 38.3245 9.34444 38.3884L24.6171 38.3964ZM39.8968 38.393L24.6324 38.3713L39.8768 23.8583L39.8968 38.393Z" fill="#F23846"/>
<path d="M69.3315 32.83L65.6451 40.5457H60.3369L76.5559 8.49315L92.1856 40.5457H86.78L83.3396 32.83H69.3315ZM76.458 19.2569L71.3963 28.3064H81.3244L76.458 19.2569ZM103.49 40.5457H98.5264V13.3023H91.0061V8.77752H111.009V13.3023H103.489V40.5457H103.49ZM120.397 40.5457H115.434V8.77869H120.397V40.5457ZM149.494 40.5457H143.448L134.11 27.5435H133.225V40.5457H128.261V8.77869H134.06C136.19 8.77869 137.902 8.92144 139.196 9.20694C140.49 9.49245 141.662 9.96866 142.711 10.6356C143.923 11.4293 144.882 12.4926 145.586 13.8265C146.291 15.1604 146.644 16.5891 146.644 18.1125C146.644 20.3669 145.98 22.3038 144.653 23.9232C143.326 25.5427 141.565 26.5751 139.37 27.0193L149.494 40.5457ZM134.799 23.3522C137.027 23.3522 138.682 22.9868 139.763 22.257C140.418 21.8128 140.926 21.2246 141.287 20.4949C141.647 19.7651 141.828 18.9862 141.828 18.1605C141.828 17.3988 141.656 16.6839 141.312 16.0169C140.968 15.35 140.501 14.8098 139.911 14.3975C139.321 14.0161 138.641 13.7385 137.87 13.5638C137.101 13.3891 136.142 13.3023 134.995 13.3023H133.226V23.3522H134.799ZM178.002 16.1608C176.429 14.9228 174.971 14.0332 173.627 13.4942C172.284 12.9539 170.776 12.6844 169.105 12.6844C167.434 12.6844 165.869 12.9939 164.411 13.6129C162.953 14.2319 161.683 15.0896 160.602 16.1848C159.52 17.28 158.669 18.5659 158.046 20.0426C157.423 21.5193 157.113 23.0987 157.113 24.7809C157.113 26.4323 157.423 27.9798 158.046 29.4245C158.668 30.8691 159.52 32.1311 160.602 33.2103C161.683 34.2895 162.953 35.1312 164.411 35.7342C165.869 36.3372 167.451 36.6387 169.153 36.6387C170.792 36.6387 172.266 36.3692 173.576 35.829C174.887 35.2888 176.361 34.3523 178 33.0196V38.7823C176.525 39.6079 175.076 40.2108 173.65 40.5925C172.225 40.9738 170.709 41.1634 169.103 41.1634C166.743 41.1634 164.539 40.7353 162.492 39.8776C160.444 39.0199 158.651 37.8538 157.11 36.3772C155.57 34.9005 154.358 33.1703 153.473 31.1855C152.588 29.2006 152.146 27.081 152.146 24.8266C152.146 22.5094 152.596 20.3418 153.498 18.325C154.399 16.3081 155.636 14.5471 157.209 13.0385C158.781 11.5298 160.616 10.3398 162.714 9.46618C164.81 8.5925 167.056 8.15625 169.447 8.15625C171.052 8.15625 172.51 8.339 173.822 8.70443C175.132 9.06989 176.525 9.66489 178 10.4906V16.1585L178.002 16.1608Z" fill="#0D0D0D"/>
</g>
</g>
<defs>
<clipPath id="clip0_0_1">
<rect width="178" height="48" fill="white"/>
</clipPath>
</defs>
</svg>
