<svg width="227" height="197" viewBox="0 0 227 197" fill="none" xmlns="http://www.w3.org/2000/svg">
<path fill-rule="evenodd" clip-rule="evenodd" d="M0 0H227V197H0V0ZM184.041 98.4692L42.959 98.5023C44.0742 97.5538 47.0351 95.0256 51.1501 91.5124L51.1783 91.4882L51.1847 91.4827L51.1878 91.4801L51.1943 91.4746C70.1331 75.3043 113.361 38.3948 113.785 38.3948L184.041 38.3806V98.4692ZM113.556 158.624C113.437 157.024 113.473 155.198 113.508 153.438C113.524 152.623 113.54 151.823 113.54 151.066C113.54 149.547 113.545 146.603 113.552 142.85V142.836C113.579 127.531 113.631 98.8136 113.448 98.5637L104.727 106.065C104.295 106.465 103.876 106.801 103.463 107.134C103.154 107.382 102.849 107.628 102.542 107.896L85.5205 122.423C85.4658 122.47 85.4047 122.514 85.344 122.557C85.3083 122.583 85.2719 122.609 85.2377 122.635L80.4971 126.664C79.9182 127.246 78.7657 128.191 77.7208 129.048C77.0979 129.559 76.5118 130.039 76.1098 130.391L68.4336 136.973C68.2232 137.143 68.0394 137.305 67.8552 137.466C67.6876 137.614 67.5189 137.762 67.33 137.917C67.1569 138.062 66.9882 138.197 66.8204 138.331C66.614 138.496 66.4091 138.659 66.1992 138.841L62.8992 141.686C62.1489 142.337 61.5184 142.88 60.6758 143.559L58.5229 145.418C57.7726 146.027 57.0115 146.654 56.2885 147.287L50.7977 151.962C49.8887 152.807 49.0253 153.519 48.167 154.228C47.5728 154.719 46.9805 155.208 46.3777 155.737L44.1923 157.643C43.8771 157.888 43.3226 158.327 43.105 158.591L113.556 158.624ZM184.04 158.61L113.627 158.52L183.948 98.5637L184.04 158.61Z" fill="#F23846"/>
</svg>
